<?xml version="1.0" standalone="no"?>
<!DOCTYPE svg PUBLIC "-//W3C//DTD SVG 20010904//EN"
 "http://www.w3.org/TR/2001/REC-SVG-20010904/DTD/svg10.dtd">
<svg version="1.0" xmlns="http://www.w3.org/2000/svg"
 width="48.000000pt" height="48.000000pt" viewBox="0 0 48.000000 48.000000"
 preserveAspectRatio="xMidYMid meet">
<metadata>
Created by potrace 1.10, written by Peter Selinger 2001-2011
</metadata>
<g transform="translate(0.000000,48.000000) scale(0.100000,-0.100000)"
fill="#000000" stroke="none">
<path d="M180 463 c-21 -9 -112 -70 -132 -90 -10 -9 -18 -31 -18 -50 0 -28 6
-37 41 -59 22 -14 43 -23 46 -20 3 3 -8 13 -25 23 -37 21 -52 50 -41 80 11 31
127 103 167 103 35 0 43 -18 17 -40 -8 -7 -15 -19 -15 -27 0 -13 12 -14 69 -8
117 12 142 -14 74 -75 l-36 -33 27 -24 c15 -13 22 -23 17 -23 -6 0 -11 -7 -11
-16 0 -8 -5 -12 -11 -9 -6 4 -35 7 -65 6 -30 0 -54 2 -54 5 0 2 8 16 17 30 14
22 14 27 2 35 -11 8 -9 14 14 34 15 13 27 29 27 35 0 19 -26 10 -55 -20 -31
-32 -55 -39 -55 -15 0 24 -20 17 -20 -7 -1 -19 -5 -16 -21 16 -26 48 -48 36
-29 -16 7 -18 14 -73 16 -122 2 -49 9 -107 14 -128 10 -37 12 -38 54 -38 66 0
72 14 41 101 -14 40 -25 75 -25 77 0 3 36 2 80 -1 44 -4 87 -4 95 -1 26 10 17
43 -17 60 l-32 16 34 28 c27 22 37 26 52 17 23 -15 49 6 30 25 -8 8 -15 8 -28
-3 -15 -12 -16 -12 -10 8 5 16 0 26 -21 43 -29 22 -43 23 -133 4 l-35 -7 28
30 c31 33 34 48 11 57 -19 7 -63 7 -84 -1z m69 -160 c-26 -31 -30 -39 -16 -41
14 -3 13 -9 -10 -43 -24 -36 -25 -42 -13 -81 7 -24 13 -59 14 -78 1 -30 -2
-35 -24 -38 -35 -4 -50 33 -56 138 -3 47 -12 102 -20 124 -18 48 -11 59 11 17
15 -29 35 -42 35 -22 0 5 8 7 18 5 10 -3 29 7 46 25 42 44 54 38 15 -6z"/>
<path d="M323 435 c-3 -9 -3 -18 0 -21 9 -9 48 16 42 27 -9 14 -35 11 -42 -6z"/>
<path d="M405 425 c-17 -13 -18 -16 -5 -25 8 -5 25 -10 38 -10 19 0 23 5 20
22 -4 28 -27 34 -53 13z"/>
<path d="M385 280 c-3 -5 -4 -14 0 -20 8 -13 35 -1 35 16 0 16 -26 19 -35 4z"/>
</g>
</svg>
